<svg xmlns="http://www.w3.org/2000/svg" version="1.0" preserveAspectRatio="xMidYMid meet" viewBox="189.68 194.12 648.32 635.9">

<g transform="translate(0.000000,1024.000000) scale(0.100000,-0.100000)" fill="#000000" stroke="none" data-darkreader-inline-fill="" data-darkreader-inline-stroke="" style="--darkreader-inline-fill: var(--darkreader-background-000000, #000000); --darkreader-inline-stroke: none;">
<path d="M3046 8293 c-4 -4 -35 -11 -69 -15 -97 -11 -137 -19 -143 -29 -3 -5 -14 -9 -24 -9 -11 0 -36 -7 -57 -16 -21 -9 -47 -20 -58 -24 -84 -32 -270 -139 -295 -170 -3 -3 -20 -17 -39 -30 -48 -33 -145 -131 -175 -177 -15 -21 -42 -58 -60 -83 -39 -51 -156 -278 -156 -303 0 -8 -4 -18 -9 -21 -5 -3 -11 -18 -14 -33 -4 -16 -11 -50 -17 -78 -33 -147 -34 -203 -33 -2175 0 -1086 3 -2006 8 -2045 4 -38 11 -74 16 -80 5 -5 9 -26 9 -46 0 -21 5 -41 10 -44 6 -3 10 -17 10 -31 0 -13 4 -32 9 -42 18 -37 60 -129 73 -159 7 -18 16 -33 20 -33 5 0 8 -9 8 -20 0 -11 5 -20 10 -20 6 0 10 -5 10 -10 0 -11 47 -79 116 -171 56 -73 247 -249 271 -249 5 0 18 -8 29 -17 19 -18 81 -52 202 -112 24 -11 52 -21 62 -21 11 0 22 -4 25 -10 3 -5 19 -10 35 -10 16 0 31 -4 34 -9 3 -5 23 -11 43 -14 140 -21 171 -27 196 -36 39 -15 4003 -15 4067 0 42 10 116 22 215 36 22 3 44 9 50 14 5 5 19 9 31 9 13 0 26 5 29 10 3 6 15 10 26 10 10 0 27 4 37 9 9 5 44 22 77 37 33 15 79 40 102 56 23 15 44 28 47 28 16 0 139 104 214 179 76 78 172 193 172 207 0 3 14 25 30 49 17 24 30 51 30 59 0 9 5 16 10 16 6 0 10 8 10 19 0 10 7 24 15 31 8 7 15 21 15 31 0 19 4 28 28 76 7 13 12 34 12 47 0 14 5 28 10 31 6 3 10 24 10 45 0 21 5 42 10 45 5 3 10 37 10 74 0 44 5 74 15 87 12 16 14 265 15 1929 0 1667 -2 1918 -15 1968 -8 32 -15 84 -15 117 0 32 -4 62 -10 65 -5 3 -10 26 -10 50 0 24 -4 47 -10 50 -5 3 -10 19 -10 35 0 16 -4 32 -10 35 -5 3 -10 17 -10 31 0 13 -4 24 -10 24 -5 0 -10 6 -10 13 0 16 -48 113 -90 182 -17 28 -33 57 -37 65 -4 8 -9 17 -12 20 -4 3 -19 23 -35 45 -40 53 -192 206 -236 236 -19 13 -46 34 -60 46 -14 13 -28 23 -32 23 -4 0 -24 11 -44 25 -20 13 -62 36 -93 51 -31 14 -64 30 -73 35 -10 5 -26 9 -35 9 -10 0 -27 7 -37 15 -11 8 -30 15 -42 15 -13 0 -25 4 -28 9 -3 5 -23 11 -43 15 -21 3 -67 11 -103 17 -74 14 -4211 25 -4224 12z m4204 -552 c19 -7 43 -18 54 -23 10 -5 28 -11 40 -14 11 -2 22 -8 24 -14 2 -5 9 -10 16 -10 19 0 72 -28 86 -45 7 -8 18 -15 25 -15 18 0 187 -179 212 -225 60 -111 93 -193 93 -233 0 -11 5 -24 10 -27 14 -9 14 -4021 0 -4030 -5 -3 -10 -19 -10 -36 0 -16 -4 -37 -9 -47 -5 -9 -26 -53 -47 -97 -21 -44 -46 -89 -56 -99 -10 -11 -18 -24 -18 -29 0 -27 -199 -197 -230 -197 -6 0 -10 -3 -10 -8 0 -4 -15 -13 -32 -20 -18 -7 -41 -18 -50 -23 -10 -5 -27 -9 -37 -9 -11 0 -23 -5 -26 -10 -3 -5 -24 -10 -45 -10 -21 0 -42 -4 -45 -10 -9 -14 -4121 -14 -4130 0 -3 6 -24 10 -45 10 -21 0 -42 5 -45 10 -3 6 -14 10 -24 10 -23 0 -158 69 -208 106 -48 37 -163 151 -163 163 0 5 -6 16 -13 23 -20 20 -87 157 -87 178 0 10 -4 22 -10 25 -5 3 -10 21 -10 39 0 17 -5 37 -10 42 -12 12 -8 3998 4 4054 8 37 19 67 42 113 8 16 14 35 14 43 0 8 5 14 10 14 6 0 10 7 10 15 0 31 112 172 183 230 57 46 242 145 272 145 12 0 25 4 31 9 5 6 38 12 74 14 36 2 978 3 2095 3 1697 -1 2036 -3 2065 -15z"/>
<path d="M3204 6641 c-2 -2 -4 -697 -4 -1543 l0 -1538 320 0 320 0 2 503 3 502 370 7 c393 7 514 14 530 29 5 5 26 9 46 9 21 0 41 5 44 10 3 6 17 10 31 10 13 0 32 4 42 9 9 5 53 26 97 47 44 21 82 41 83 46 2 4 8 8 13 8 21 0 127 80 179 136 63 66 130 156 130 173 0 6 5 11 10 11 6 0 10 9 10 20 0 11 3 20 8 20 4 0 13 15 20 33 7 17 18 40 23 49 5 10 9 25 9 33 0 8 4 23 9 33 37 75 54 180 54 337 0 142 -9 228 -29 272 -8 17 -14 42 -14 56 0 14 -4 29 -10 32 -5 3 -10 14 -10 25 0 10 -9 35 -19 57 -11 21 -25 53 -33 71 -7 17 -16 32 -20 32 -5 0 -8 9 -8 20 0 11 -3 20 -7 20 -5 0 -20 19 -35 43 -28 44 -200 217 -215 217 -5 0 -18 8 -29 18 -23 21 -122 75 -184 100 -85 34 -180 58 -300 74 -72 10 -1427 27 -1436 19z m1316 -546 c25 -4 49 -11 54 -16 6 -5 18 -9 27 -9 29 0 131 -60 170 -99 36 -37 98 -147 118 -212 14 -45 15 -296 1 -304 -5 -3 -10 -19 -10 -35 0 -16 -5 -32 -10 -35 -6 -3 -19 -26 -30 -49 -34 -75 -169 -196 -219 -196 -11 0 -22 -4 -25 -9 -12 -19 -92 -24 -418 -28 l-338 -4 0 506 0 506 318 -4 c174 -3 337 -8 362 -12z"/>
<path d="M6975 5880 c-11 -5 -43 -9 -72 -9 -28 -1 -55 -5 -58 -11 -3 -5 -15 -10 -26 -10 -25 0 -100 -35 -164 -76 -64 -41 -181 -162 -229 -237 -21 -31 -42 -55 -47 -52 -5 4 -9 85 -9 186 l0 179 -292 -2 -293 -3 -3 -1142 -2 -1143 295 0 295 0 0 608 c1 502 3 614 15 647 8 22 15 52 15 67 0 15 5 30 10 33 6 3 10 17 10 30 0 13 5 27 10 30 6 3 10 14 10 25 0 22 40 100 52 100 4 0 8 7 8 16 0 17 114 134 131 134 5 0 25 11 43 25 18 14 40 25 49 25 9 0 18 4 21 9 9 14 77 22 236 29 l145 7 3 273 2 272 -67 -1 c-38 0 -77 -4 -88 -9z"/>
</g>
</svg>